<mxfile host="Electron" modified="2023-07-10T12:14:55.704Z" agent="Mozilla/5.0 (Macintosh; Intel Mac OS X 10_15_7) AppleWebKit/537.36 (KHTML, like Gecko) draw.io/21.6.1 Chrome/112.0.5615.204 Electron/24.6.1 Safari/537.36" etag="HTULYocQijzo_w-GSbJr" version="21.6.1" type="device">
  <diagram name="페이지-1" id="AL6lr5c-EtqLDbfQz3Nm">
    <mxGraphModel dx="1434" dy="907" grid="1" gridSize="10" guides="1" tooltips="1" connect="1" arrows="1" fold="1" page="1" pageScale="1" pageWidth="1169" pageHeight="1654" math="0" shadow="0">
      <root>
        <mxCell id="0" />
        <mxCell id="1" parent="0" />
        <mxCell id="JmZ16coZo41RRajE1f75-37" style="edgeStyle=orthogonalEdgeStyle;rounded=0;orthogonalLoop=1;jettySize=auto;html=1;exitX=0.5;exitY=0.5;exitDx=0;exitDy=0;exitPerimeter=0;entryX=0;entryY=0.5;entryDx=0;entryDy=0;" parent="1" source="JmZ16coZo41RRajE1f75-1" target="JmZ16coZo41RRajE1f75-13" edge="1">
          <mxGeometry relative="1" as="geometry" />
        </mxCell>
        <mxCell id="JmZ16coZo41RRajE1f75-39" style="edgeStyle=orthogonalEdgeStyle;rounded=0;orthogonalLoop=1;jettySize=auto;html=1;entryX=0;entryY=0.5;entryDx=0;entryDy=0;" parent="1" source="JmZ16coZo41RRajE1f75-1" target="JmZ16coZo41RRajE1f75-23" edge="1">
          <mxGeometry relative="1" as="geometry">
            <Array as="points">
              <mxPoint x="80" y="360" />
              <mxPoint x="80" y="258" />
            </Array>
          </mxGeometry>
        </mxCell>
        <mxCell id="JmZ16coZo41RRajE1f75-1" value="사용자" style="shape=umlActor;verticalLabelPosition=bottom;verticalAlign=top;html=1;outlineConnect=0;" parent="1" vertex="1">
          <mxGeometry x="30" y="330" width="30" height="60" as="geometry" />
        </mxCell>
        <mxCell id="JmZ16coZo41RRajE1f75-10" value="" style="edgeStyle=orthogonalEdgeStyle;rounded=0;orthogonalLoop=1;jettySize=auto;html=1;" parent="1" source="JmZ16coZo41RRajE1f75-5" target="JmZ16coZo41RRajE1f75-6" edge="1">
          <mxGeometry relative="1" as="geometry" />
        </mxCell>
        <mxCell id="JmZ16coZo41RRajE1f75-5" value="로그인" style="ellipse;whiteSpace=wrap;html=1;" parent="1" vertex="1">
          <mxGeometry x="200" y="428" width="90" height="60" as="geometry" />
        </mxCell>
        <mxCell id="JmZ16coZo41RRajE1f75-6" value="소셜&lt;br&gt;로그인" style="ellipse;whiteSpace=wrap;html=1;" parent="1" vertex="1">
          <mxGeometry x="200" y="540" width="90" height="60" as="geometry" />
        </mxCell>
        <mxCell id="JmZ16coZo41RRajE1f75-26" style="edgeStyle=orthogonalEdgeStyle;rounded=0;orthogonalLoop=1;jettySize=auto;html=1;exitX=1;exitY=0.5;exitDx=0;exitDy=0;entryX=0;entryY=0.5;entryDx=0;entryDy=0;" parent="1" target="JmZ16coZo41RRajE1f75-18" edge="1">
          <mxGeometry relative="1" as="geometry">
            <mxPoint x="310" y="360" as="sourcePoint" />
            <Array as="points">
              <mxPoint x="400" y="360" />
              <mxPoint x="400" y="433" />
            </Array>
          </mxGeometry>
        </mxCell>
        <mxCell id="JmZ16coZo41RRajE1f75-54" style="edgeStyle=orthogonalEdgeStyle;rounded=0;orthogonalLoop=1;jettySize=auto;html=1;exitX=1;exitY=0.5;exitDx=0;exitDy=0;entryX=0;entryY=0.5;entryDx=0;entryDy=0;" parent="1" source="JmZ16coZo41RRajE1f75-13" target="JmZ16coZo41RRajE1f75-15" edge="1">
          <mxGeometry relative="1" as="geometry">
            <Array as="points">
              <mxPoint x="400" y="360" />
              <mxPoint x="400" y="300" />
            </Array>
          </mxGeometry>
        </mxCell>
        <mxCell id="JmZ16coZo41RRajE1f75-13" value="방 목록" style="ellipse;whiteSpace=wrap;html=1;" parent="1" vertex="1">
          <mxGeometry x="200" y="330" width="90" height="60" as="geometry" />
        </mxCell>
        <mxCell id="JmZ16coZo41RRajE1f75-15" value="방 만들기" style="ellipse;whiteSpace=wrap;html=1;" parent="1" vertex="1">
          <mxGeometry x="506" y="270" width="90" height="60" as="geometry" />
        </mxCell>
        <mxCell id="JmZ16coZo41RRajE1f75-48" value="" style="rounded=0;orthogonalLoop=1;jettySize=auto;html=1;edgeStyle=orthogonalEdgeStyle;" parent="1" source="JmZ16coZo41RRajE1f75-18" target="JmZ16coZo41RRajE1f75-22" edge="1">
          <mxGeometry relative="1" as="geometry">
            <Array as="points">
              <mxPoint x="551" y="510" />
            </Array>
          </mxGeometry>
        </mxCell>
        <mxCell id="JmZ16coZo41RRajE1f75-18" value="모임방" style="ellipse;whiteSpace=wrap;html=1;" parent="1" vertex="1">
          <mxGeometry x="506" y="403" width="90" height="60" as="geometry" />
        </mxCell>
        <mxCell id="JmZ16coZo41RRajE1f75-19" value="모임방&lt;br&gt;채팅" style="ellipse;whiteSpace=wrap;html=1;" parent="1" vertex="1">
          <mxGeometry x="575" y="340" width="91" height="60" as="geometry" />
        </mxCell>
        <mxCell id="JmZ16coZo41RRajE1f75-20" value="모임원&lt;br&gt;평가" style="ellipse;whiteSpace=wrap;html=1;" parent="1" vertex="1">
          <mxGeometry x="682" y="403" width="91" height="60" as="geometry" />
        </mxCell>
        <mxCell id="JmZ16coZo41RRajE1f75-21" value="보드게임카페&lt;br&gt;평가" style="ellipse;whiteSpace=wrap;html=1;" parent="1" vertex="1">
          <mxGeometry x="828" y="403" width="91" height="60" as="geometry" />
        </mxCell>
        <mxCell id="JmZ16coZo41RRajE1f75-22" value="참여인원&lt;br&gt;프로필 보기" style="ellipse;whiteSpace=wrap;html=1;" parent="1" vertex="1">
          <mxGeometry x="432" y="480" width="91" height="60" as="geometry" />
        </mxCell>
        <mxCell id="JmZ16coZo41RRajE1f75-23" value="보드게임&lt;br&gt;목록" style="ellipse;whiteSpace=wrap;html=1;" parent="1" vertex="1">
          <mxGeometry x="200" y="228" width="90" height="60" as="geometry" />
        </mxCell>
        <mxCell id="JmZ16coZo41RRajE1f75-44" value="마이페이지" style="ellipse;whiteSpace=wrap;html=1;" parent="1" vertex="1">
          <mxGeometry x="367" y="559" width="90" height="60" as="geometry" />
        </mxCell>
        <mxCell id="JmZ16coZo41RRajE1f75-45" value="보드게임&lt;br&gt;검색" style="ellipse;whiteSpace=wrap;html=1;" parent="1" vertex="1">
          <mxGeometry x="200" y="141" width="90" height="60" as="geometry" />
        </mxCell>
        <mxCell id="JmZ16coZo41RRajE1f75-55" value="프로필&lt;br&gt;이미지" style="ellipse;whiteSpace=wrap;html=1;" parent="1" vertex="1">
          <mxGeometry x="689" y="530" width="66" height="44" as="geometry" />
        </mxCell>
        <mxCell id="JmZ16coZo41RRajE1f75-56" value="닉네임" style="ellipse;whiteSpace=wrap;html=1;" parent="1" vertex="1">
          <mxGeometry x="689" y="579" width="66" height="44" as="geometry" />
        </mxCell>
        <mxCell id="JmZ16coZo41RRajE1f75-57" value="선호 장르" style="ellipse;whiteSpace=wrap;html=1;" parent="1" vertex="1">
          <mxGeometry x="689" y="627" width="66" height="44" as="geometry" />
        </mxCell>
        <mxCell id="JmZ16coZo41RRajE1f75-58" value="선호 게임" style="ellipse;whiteSpace=wrap;html=1;" parent="1" vertex="1">
          <mxGeometry x="689" y="676" width="66" height="44" as="geometry" />
        </mxCell>
        <mxCell id="JmZ16coZo41RRajE1f75-81" value="" style="html=1;verticalAlign=bottom;endArrow=open;dashed=1;endSize=8;edgeStyle=elbowEdgeStyle;elbow=horizontal;curved=0;rounded=0;exitX=0;exitY=0.5;exitDx=0;exitDy=0;" parent="1" source="JmZ16coZo41RRajE1f75-58" target="JmZ16coZo41RRajE1f75-111" edge="1">
          <mxGeometry relative="1" as="geometry">
            <mxPoint x="1000" y="728" as="sourcePoint" />
            <mxPoint x="819" y="590" as="targetPoint" />
          </mxGeometry>
        </mxCell>
        <mxCell id="JmZ16coZo41RRajE1f75-82" value="" style="endArrow=block;dashed=1;endFill=0;endSize=12;html=1;rounded=0;exitX=1;exitY=0.5;exitDx=0;exitDy=0;" parent="1" source="JmZ16coZo41RRajE1f75-20" target="JmZ16coZo41RRajE1f75-21" edge="1">
          <mxGeometry width="160" relative="1" as="geometry">
            <mxPoint x="456" y="470" as="sourcePoint" />
            <mxPoint x="616" y="470" as="targetPoint" />
          </mxGeometry>
        </mxCell>
        <mxCell id="JmZ16coZo41RRajE1f75-83" value="" style="endArrow=block;dashed=1;endFill=0;endSize=12;html=1;rounded=0;" parent="1" source="JmZ16coZo41RRajE1f75-21" target="JmZ16coZo41RRajE1f75-18" edge="1">
          <mxGeometry width="160" relative="1" as="geometry">
            <mxPoint x="946" y="490" as="sourcePoint" />
            <mxPoint x="982" y="443" as="targetPoint" />
            <Array as="points">
              <mxPoint x="720" y="390" />
            </Array>
          </mxGeometry>
        </mxCell>
        <mxCell id="JmZ16coZo41RRajE1f75-85" value="" style="ellipse;whiteSpace=wrap;html=1;align=center;aspect=fixed;fillColor=none;strokeColor=none;resizable=0;perimeter=centerPerimeter;rotatable=0;allowArrows=0;points=[];outlineConnect=1;" parent="1" vertex="1">
          <mxGeometry x="676" y="460" width="10" height="10" as="geometry" />
        </mxCell>
        <mxCell id="JmZ16coZo41RRajE1f75-87" value="" style="endArrow=none;dashed=1;html=1;rounded=0;entryX=0.289;entryY=0;entryDx=0;entryDy=0;entryPerimeter=0;" parent="1" source="JmZ16coZo41RRajE1f75-5" target="JmZ16coZo41RRajE1f75-44" edge="1">
          <mxGeometry width="50" height="50" relative="1" as="geometry">
            <mxPoint x="520" y="490" as="sourcePoint" />
            <mxPoint x="342" y="577" as="targetPoint" />
          </mxGeometry>
        </mxCell>
        <mxCell id="JmZ16coZo41RRajE1f75-91" value="" style="html=1;verticalAlign=bottom;endArrow=open;dashed=1;endSize=8;edgeStyle=elbowEdgeStyle;elbow=vertical;curved=0;rounded=0;exitX=0.5;exitY=1;exitDx=0;exitDy=0;" parent="1" source="JmZ16coZo41RRajE1f75-123" edge="1">
          <mxGeometry relative="1" as="geometry">
            <mxPoint x="669" y="230" as="sourcePoint" />
            <mxPoint x="551" y="270" as="targetPoint" />
          </mxGeometry>
        </mxCell>
        <mxCell id="JmZ16coZo41RRajE1f75-96" value="구매링크" style="ellipse;whiteSpace=wrap;html=1;" parent="1" vertex="1">
          <mxGeometry x="366" y="190" width="66" height="44" as="geometry" />
        </mxCell>
        <mxCell id="JmZ16coZo41RRajE1f75-98" value="설명영상" style="ellipse;whiteSpace=wrap;html=1;" parent="1" vertex="1">
          <mxGeometry x="366" y="236" width="66" height="44" as="geometry" />
        </mxCell>
        <mxCell id="JmZ16coZo41RRajE1f75-99" value="설명 글" style="ellipse;whiteSpace=wrap;html=1;" parent="1" vertex="1">
          <mxGeometry x="366" y="282" width="66" height="44" as="geometry" />
        </mxCell>
        <mxCell id="JmZ16coZo41RRajE1f75-100" value="" style="html=1;verticalAlign=bottom;endArrow=open;dashed=1;endSize=8;edgeStyle=elbowEdgeStyle;elbow=horizontal;curved=0;rounded=0;exitX=0;exitY=0.5;exitDx=0;exitDy=0;entryX=1;entryY=0.5;entryDx=0;entryDy=0;" parent="1" source="JmZ16coZo41RRajE1f75-96" target="JmZ16coZo41RRajE1f75-23" edge="1">
          <mxGeometry relative="1" as="geometry">
            <mxPoint x="445" y="240" as="sourcePoint" />
            <mxPoint x="445" y="288" as="targetPoint" />
          </mxGeometry>
        </mxCell>
        <mxCell id="JmZ16coZo41RRajE1f75-101" value="" style="html=1;verticalAlign=bottom;endArrow=open;dashed=1;endSize=8;edgeStyle=elbowEdgeStyle;elbow=horizontal;curved=0;rounded=0;exitX=0;exitY=0.5;exitDx=0;exitDy=0;entryX=1;entryY=0.5;entryDx=0;entryDy=0;" parent="1" source="JmZ16coZo41RRajE1f75-98" target="JmZ16coZo41RRajE1f75-23" edge="1">
          <mxGeometry relative="1" as="geometry">
            <mxPoint x="320" y="190" as="sourcePoint" />
            <mxPoint x="290" y="270" as="targetPoint" />
          </mxGeometry>
        </mxCell>
        <mxCell id="JmZ16coZo41RRajE1f75-102" value="" style="html=1;verticalAlign=bottom;endArrow=open;dashed=1;endSize=8;edgeStyle=elbowEdgeStyle;elbow=horizontal;curved=0;rounded=0;exitX=0;exitY=0.5;exitDx=0;exitDy=0;entryX=1;entryY=0.5;entryDx=0;entryDy=0;" parent="1" source="JmZ16coZo41RRajE1f75-99" target="JmZ16coZo41RRajE1f75-23" edge="1">
          <mxGeometry relative="1" as="geometry">
            <mxPoint x="320" y="190" as="sourcePoint" />
            <mxPoint x="300" y="240" as="targetPoint" />
          </mxGeometry>
        </mxCell>
        <mxCell id="JmZ16coZo41RRajE1f75-106" value="" style="endArrow=classicThin;html=1;rounded=0;exitX=0.5;exitY=0;exitDx=0;exitDy=0;entryX=0;entryY=0.5;entryDx=0;entryDy=0;endFill=1;" parent="1" source="JmZ16coZo41RRajE1f75-18" target="JmZ16coZo41RRajE1f75-19" edge="1">
          <mxGeometry width="50" height="50" relative="1" as="geometry">
            <mxPoint x="606" y="390" as="sourcePoint" />
            <mxPoint x="656" y="340" as="targetPoint" />
            <Array as="points">
              <mxPoint x="551" y="370" />
            </Array>
          </mxGeometry>
        </mxCell>
        <mxCell id="JmZ16coZo41RRajE1f75-107" value="" style="endArrow=none;html=1;rounded=0;entryX=0.5;entryY=1;entryDx=0;entryDy=0;exitX=0.5;exitY=0;exitDx=0;exitDy=0;" parent="1" source="JmZ16coZo41RRajE1f75-23" target="JmZ16coZo41RRajE1f75-45" edge="1">
          <mxGeometry width="50" height="50" relative="1" as="geometry">
            <mxPoint x="520" y="390" as="sourcePoint" />
            <mxPoint x="570" y="340" as="targetPoint" />
          </mxGeometry>
        </mxCell>
        <mxCell id="JmZ16coZo41RRajE1f75-109" style="edgeStyle=orthogonalEdgeStyle;rounded=0;orthogonalLoop=1;jettySize=auto;html=1;entryX=0;entryY=0.5;entryDx=0;entryDy=0;exitX=0.5;exitY=0.5;exitDx=0;exitDy=0;exitPerimeter=0;" parent="1" source="JmZ16coZo41RRajE1f75-1" target="JmZ16coZo41RRajE1f75-5" edge="1">
          <mxGeometry relative="1" as="geometry">
            <mxPoint x="40" y="560" as="sourcePoint" />
            <mxPoint x="90" y="458" as="targetPoint" />
            <Array as="points">
              <mxPoint x="80" y="360" />
              <mxPoint x="80" y="458" />
            </Array>
          </mxGeometry>
        </mxCell>
        <mxCell id="JmZ16coZo41RRajE1f75-111" value="개인정보&lt;br&gt;변경" style="ellipse;whiteSpace=wrap;html=1;" parent="1" vertex="1">
          <mxGeometry x="539" y="567" width="66" height="44" as="geometry" />
        </mxCell>
        <mxCell id="JmZ16coZo41RRajE1f75-112" value="매너점수" style="ellipse;whiteSpace=wrap;html=1;" parent="1" vertex="1">
          <mxGeometry x="538" y="621" width="66" height="44" as="geometry" />
        </mxCell>
        <mxCell id="JmZ16coZo41RRajE1f75-113" value="출석점수" style="ellipse;whiteSpace=wrap;html=1;" parent="1" vertex="1">
          <mxGeometry x="538" y="675" width="66" height="44" as="geometry" />
        </mxCell>
        <mxCell id="JmZ16coZo41RRajE1f75-114" value="" style="html=1;verticalAlign=bottom;endArrow=open;dashed=1;endSize=8;edgeStyle=elbowEdgeStyle;elbow=horizontal;curved=0;rounded=0;exitX=0;exitY=0.5;exitDx=0;exitDy=0;" parent="1" source="JmZ16coZo41RRajE1f75-113" target="JmZ16coZo41RRajE1f75-44" edge="1">
          <mxGeometry relative="1" as="geometry">
            <mxPoint x="950" y="738" as="sourcePoint" />
            <mxPoint x="769" y="600" as="targetPoint" />
            <Array as="points">
              <mxPoint x="479" y="670" />
              <mxPoint x="489" y="670" />
            </Array>
          </mxGeometry>
        </mxCell>
        <mxCell id="JmZ16coZo41RRajE1f75-115" value="" style="html=1;verticalAlign=bottom;endArrow=open;dashed=1;endSize=8;edgeStyle=elbowEdgeStyle;elbow=horizontal;curved=0;rounded=0;exitX=0;exitY=0.5;exitDx=0;exitDy=0;" parent="1" source="JmZ16coZo41RRajE1f75-57" target="JmZ16coZo41RRajE1f75-111" edge="1">
          <mxGeometry relative="1" as="geometry">
            <mxPoint x="1020" y="748" as="sourcePoint" />
            <mxPoint x="839" y="610" as="targetPoint" />
          </mxGeometry>
        </mxCell>
        <mxCell id="JmZ16coZo41RRajE1f75-116" value="" style="html=1;verticalAlign=bottom;endArrow=open;dashed=1;endSize=8;edgeStyle=elbowEdgeStyle;elbow=horizontal;curved=0;rounded=0;entryX=1;entryY=0.5;entryDx=0;entryDy=0;exitX=0;exitY=0.5;exitDx=0;exitDy=0;" parent="1" source="JmZ16coZo41RRajE1f75-111" target="JmZ16coZo41RRajE1f75-44" edge="1">
          <mxGeometry relative="1" as="geometry">
            <mxPoint x="966" y="765" as="sourcePoint" />
            <mxPoint x="829" y="660" as="targetPoint" />
            <Array as="points">
              <mxPoint x="480" y="593" />
            </Array>
          </mxGeometry>
        </mxCell>
        <mxCell id="JmZ16coZo41RRajE1f75-117" value="" style="html=1;verticalAlign=bottom;endArrow=open;dashed=1;endSize=8;edgeStyle=elbowEdgeStyle;elbow=horizontal;curved=0;rounded=0;entryX=1;entryY=0.5;entryDx=0;entryDy=0;exitX=0;exitY=0.5;exitDx=0;exitDy=0;" parent="1" source="JmZ16coZo41RRajE1f75-112" target="JmZ16coZo41RRajE1f75-44" edge="1">
          <mxGeometry relative="1" as="geometry">
            <mxPoint x="980" y="768" as="sourcePoint" />
            <mxPoint x="799" y="630" as="targetPoint" />
            <Array as="points">
              <mxPoint x="479" y="620" />
            </Array>
          </mxGeometry>
        </mxCell>
        <mxCell id="JmZ16coZo41RRajE1f75-118" value="" style="html=1;verticalAlign=bottom;endArrow=open;dashed=1;endSize=8;edgeStyle=elbowEdgeStyle;elbow=horizontal;curved=0;rounded=0;entryX=1;entryY=0.5;entryDx=0;entryDy=0;exitX=0;exitY=0.5;exitDx=0;exitDy=0;" parent="1" source="JmZ16coZo41RRajE1f75-55" target="JmZ16coZo41RRajE1f75-111" edge="1">
          <mxGeometry relative="1" as="geometry">
            <mxPoint x="1010" y="738" as="sourcePoint" />
            <mxPoint x="829" y="600" as="targetPoint" />
          </mxGeometry>
        </mxCell>
        <mxCell id="JmZ16coZo41RRajE1f75-119" value="" style="html=1;verticalAlign=bottom;endArrow=open;dashed=1;endSize=8;edgeStyle=elbowEdgeStyle;elbow=horizontal;curved=0;rounded=0;entryX=1;entryY=0.5;entryDx=0;entryDy=0;exitX=0;exitY=0.5;exitDx=0;exitDy=0;" parent="1" source="JmZ16coZo41RRajE1f75-56" target="JmZ16coZo41RRajE1f75-111" edge="1">
          <mxGeometry relative="1" as="geometry">
            <mxPoint x="1030" y="758" as="sourcePoint" />
            <mxPoint x="849" y="620" as="targetPoint" />
          </mxGeometry>
        </mxCell>
        <mxCell id="JmZ16coZo41RRajE1f75-122" value="" style="endArrow=classic;startArrow=classic;html=1;rounded=0;entryX=0;entryY=0.5;entryDx=0;entryDy=0;exitX=1;exitY=0.5;exitDx=0;exitDy=0;" parent="1" source="JmZ16coZo41RRajE1f75-18" target="JmZ16coZo41RRajE1f75-20" edge="1">
          <mxGeometry width="50" height="50" relative="1" as="geometry">
            <mxPoint x="696" y="490" as="sourcePoint" />
            <mxPoint x="746" y="440" as="targetPoint" />
          </mxGeometry>
        </mxCell>
        <mxCell id="JmZ16coZo41RRajE1f75-123" value="지도 선택" style="ellipse;whiteSpace=wrap;html=1;" parent="1" vertex="1">
          <mxGeometry x="518" y="189" width="66" height="44" as="geometry" />
        </mxCell>
        <mxCell id="JmZ16coZo41RRajE1f75-124" value="보드게임&lt;br&gt;선택" style="ellipse;whiteSpace=wrap;html=1;" parent="1" vertex="1">
          <mxGeometry x="596" y="189" width="66" height="44" as="geometry" />
        </mxCell>
        <mxCell id="JmZ16coZo41RRajE1f75-125" value="장르선택" style="ellipse;whiteSpace=wrap;html=1;" parent="1" vertex="1">
          <mxGeometry x="674" y="189" width="66" height="44" as="geometry" />
        </mxCell>
        <mxCell id="JmZ16coZo41RRajE1f75-126" value="날짜선택" style="ellipse;whiteSpace=wrap;html=1;" parent="1" vertex="1">
          <mxGeometry x="751" y="189" width="66" height="44" as="geometry" />
        </mxCell>
        <mxCell id="JmZ16coZo41RRajE1f75-127" value="보드게임&lt;br&gt;카페 검색" style="ellipse;whiteSpace=wrap;html=1;" parent="1" vertex="1">
          <mxGeometry x="518" y="117" width="66" height="44" as="geometry" />
        </mxCell>
        <mxCell id="JmZ16coZo41RRajE1f75-128" value="" style="html=1;verticalAlign=bottom;endArrow=open;dashed=1;endSize=8;edgeStyle=elbowEdgeStyle;elbow=vertical;curved=0;rounded=0;exitX=0.5;exitY=1;exitDx=0;exitDy=0;entryX=0.5;entryY=0;entryDx=0;entryDy=0;" parent="1" source="JmZ16coZo41RRajE1f75-124" target="JmZ16coZo41RRajE1f75-15" edge="1">
          <mxGeometry relative="1" as="geometry">
            <mxPoint x="561" y="243" as="sourcePoint" />
            <mxPoint x="561" y="280" as="targetPoint" />
          </mxGeometry>
        </mxCell>
        <mxCell id="JmZ16coZo41RRajE1f75-129" value="" style="html=1;verticalAlign=bottom;endArrow=open;dashed=1;endSize=8;edgeStyle=elbowEdgeStyle;elbow=vertical;curved=0;rounded=0;exitX=0.5;exitY=1;exitDx=0;exitDy=0;entryX=0.5;entryY=0;entryDx=0;entryDy=0;" parent="1" source="JmZ16coZo41RRajE1f75-125" target="JmZ16coZo41RRajE1f75-15" edge="1">
          <mxGeometry relative="1" as="geometry">
            <mxPoint x="571" y="253" as="sourcePoint" />
            <mxPoint x="571" y="290" as="targetPoint" />
          </mxGeometry>
        </mxCell>
        <mxCell id="JmZ16coZo41RRajE1f75-130" value="" style="html=1;verticalAlign=bottom;endArrow=open;dashed=1;endSize=8;edgeStyle=elbowEdgeStyle;elbow=vertical;curved=0;rounded=0;exitX=0.5;exitY=1;exitDx=0;exitDy=0;entryX=0.5;entryY=0;entryDx=0;entryDy=0;" parent="1" source="JmZ16coZo41RRajE1f75-126" target="JmZ16coZo41RRajE1f75-15" edge="1">
          <mxGeometry relative="1" as="geometry">
            <mxPoint x="701" y="243" as="sourcePoint" />
            <mxPoint x="561" y="280" as="targetPoint" />
          </mxGeometry>
        </mxCell>
        <mxCell id="JmZ16coZo41RRajE1f75-131" value="" style="html=1;verticalAlign=bottom;endArrow=open;dashed=1;endSize=8;edgeStyle=elbowEdgeStyle;elbow=vertical;curved=0;rounded=0;exitX=0.5;exitY=1;exitDx=0;exitDy=0;" parent="1" source="JmZ16coZo41RRajE1f75-127" target="JmZ16coZo41RRajE1f75-123" edge="1">
          <mxGeometry relative="1" as="geometry">
            <mxPoint x="711" y="253" as="sourcePoint" />
            <mxPoint x="571" y="290" as="targetPoint" />
          </mxGeometry>
        </mxCell>
        <mxCell id="JmZ16coZo41RRajE1f75-132" value="지역" style="ellipse;whiteSpace=wrap;html=1;" parent="1" vertex="1">
          <mxGeometry x="689" y="482" width="66" height="44" as="geometry" />
        </mxCell>
        <mxCell id="JmZ16coZo41RRajE1f75-133" value="" style="html=1;verticalAlign=bottom;endArrow=open;dashed=1;endSize=8;edgeStyle=elbowEdgeStyle;elbow=horizontal;curved=0;rounded=0;entryX=1;entryY=0.5;entryDx=0;entryDy=0;exitX=0;exitY=0.5;exitDx=0;exitDy=0;" parent="1" source="JmZ16coZo41RRajE1f75-132" target="JmZ16coZo41RRajE1f75-111" edge="1">
          <mxGeometry relative="1" as="geometry">
            <mxPoint x="668" y="674" as="sourcePoint" />
            <mxPoint x="615" y="603" as="targetPoint" />
          </mxGeometry>
        </mxCell>
      </root>
    </mxGraphModel>
  </diagram>
</mxfile>
